<?xml version="1.0" encoding="UTF-8"?>
<svg width="24px" height="24px" viewBox="0 0 24 24" version="1.1" xmlns="http://www.w3.org/2000/svg" xmlns:xlink="http://www.w3.org/1999/xlink">
    <g stroke="none" stroke-width="1" fill="none" fill-rule="evenodd">
        <path d="M12,2 C17.5228475,2 22,6.4771525 22,12 C22,17.5228475 17.5228475,22 12,22 C6.4771525,22 2,17.5228475 2,12 C2,6.4771525 6.4771525,2 12,2 Z M12,4 C7.581722,4 4,7.581722 4,12 C4,16.418278 7.581722,20 12,20 C16.418278,20 20,16.418278 20,12 C20,7.581722 16.418278,4 12,4 Z M8.5,7.5 L15.5,7.5 L15.5,7.5 L16.5,8.5 L8.5,16.5 L7.5,15.5 L7.5,8.5 L8.5,7.5 Z M9.5,9.5 L9.5,14.086 L14.086,9.5 L9.5,9.5 Z" fill="#3b82f6" fill-rule="nonzero"></path>
    </g>
</svg>