<?xml version="1.0" encoding="UTF-8"?>
<svg width="24px" height="24px" viewBox="0 0 24 24" version="1.1" xmlns="http://www.w3.org/2000/svg" xmlns:xlink="http://www.w3.org/1999/xlink">
    <g stroke="none" stroke-width="1" fill="none" fill-rule="evenodd">
        <path d="M12,22 C13.1045695,22 14,21.1045695 14,20 L14,18 L10,18 L10,20 C10,21.1045695 10.8954305,22 12,22 Z M12,6 C11.4477153,6 11,5.55228475 11,5 C11,4.44771525 11.4477153,4 12,4 C12.5522847,4 13,4.44771525 13,5 C13,5.55228475 12.5522847,6 12,6 Z M19,13 L19,12 C19,8.82 17.2810339,6.0608144 14.619691,4.61550357 C14.4537267,4.52911208 14.3590902,4.3685893 14.3590902,4.18991671 L14.3590902,4.1764421 C14.3590902,4.0771195 14.3967921,3.98122428 14.4666248,3.90671887 C14.6254924,3.74231767 14.9029267,3.73772357 15.0673279,3.89659119 C17.2304677,5.91246217 17.6077262,7.41271614 17.9,9 L18.8,9 L18.8034756,9.00001186 C19.4658699,9.00486507 20,9.54338568 20,10.2057962 C20,10.5311667 19.8739882,10.8320659 19.6631463,11.0458076 L19.6631463,11.0458076 L19.1,11.618 L19.8544753,11.6179996 C20.5100289,11.6177241 21.0400407,12.1442758 21.0433755,12.7997825 C21.0451508,13.1251454 20.9198244,13.4262987 20.7097637,13.6404634 L20.7097637,13.6404634 L20.1,14.26 L20.8532039,14.2599996 C21.5122043,14.2597213 22.0450407,14.7891258 22.0485217,15.4480783 C22.0505155,15.7685386 21.9302567,16.0656498 21.727101,16.2788651 L21.727101,16.2788651 L21.1,16.918 L21.871249,16.9179996 C22.5303775,16.9177213 23.0632138,17.4471258 23.0666948,18.1060783 C23.0686887,18.4265386 22.9484299,18.7236498 22.7452742,18.9368651 L22.7452742,18.9368651 L18.658,23.081 C18.5075277,23.4540756 18.150192,23.7157366 17.7361559,23.7271921 L17.7361559,23.7271921 L16.4,23.748 L16.4,18 L14.3982009,18 C14.9306955,16.2855295 15.5,14.4940694 15.5,13 C15.5,10.33 13.67,8 11,8 C8.33,8 6.5,10.33 6.5,13 C6.5,14.4940694 7.06932405,16.2855341 7.60176782,18 L5.6,18 L5.6,23.748 L4.26384409,23.7271921 C3.84980799,23.7157366 3.49247235,23.4540756 3.34200005,23.081 L-0.745274166,18.9368651 C-0.948429942,18.7236498 -1.06868873,18.4265386 -1.06669483,18.1060783 C-1.06321377,17.4471258 -0.530377536,16.9177213 0.128750963,16.9179996 L0.900000048,16.918 L0.272899042,16.2788651 C0.0697432782,16.0656498 -0.0505154687,15.7685386 -0.0485216952,15.4480783 C-0.0450407212,14.7891258 0.487795709,14.2597213 1.14679611,14.2599996 L1.9,14.26 L1.29023631,13.6404634 C1.0801756,13.4262987 0.954849176,13.1251454 0.956624538,12.7997825 C0.959959289,12.1442758 1.49001895,11.6177278 2.14556902,11.6180033 L2.9,11.618 L2.3368537,11.0458076 C2.12601184,10.8320659 2,10.5311667 2,10.2057962 C2,9.54338568 2.53413013,9.00486507 3.19652442,9.00001186 L3.2,9 L4.1,9 C4.39227376,7.41271614 4.76953228,5.91246217 6.93267206,3.89659119 C7.09707334,3.73772357 7.37450763,3.74231767 7.53337523,3.90671887 C7.60320791,3.98122428 7.64090979,4.0771195 7.64090979,4.1764421 L7.64090979,4.18991671 C7.64090979,4.3685893 7.54627327,4.52911208 7.38030897,4.61550357 C4.71896613,6.0608144 3,8.82 3,12 L3,13 L9,13 L9,11 C9,10.44 8.55,10 8,10 C7.45,10 7,10.44 7,11 L5,11 C5,9.34 6.34,8 8,8 C9.66,8 11,9.34 11,11 L11,13 L13,13 L13,11 C13,9.34 14.34,8 16,8 C17.66,8 19,9.34 19,11 L17,11 C17,10.44 16.55,10 16,10 C15.45,10 15,10.44 15,11 L15,13 L19,13 Z" fill="#3b82f6" fill-rule="nonzero"></path>
    </g>
</svg>