<?xml version="1.0" encoding="UTF-8"?>
<svg width="24px" height="24px" viewBox="0 0 24 24" version="1.1" xmlns="http://www.w3.org/2000/svg" xmlns:xlink="http://www.w3.org/1999/xlink">
    <g stroke="none" stroke-width="1" fill="none" fill-rule="evenodd">
        <path d="M17,4 C20.3137085,4 23,6.6862915 23,10 L23,14 C23,17.3137085 20.3137085,20 17,20 L7,20 C3.6862915,20 1,17.3137085 1,14 L1,10 C1,6.6862915 3.6862915,4 7,4 L17,4 Z M17,6 L7,6 C4.790861,6 3,7.790861 3,10 L3,14 C3,16.209139 4.790861,18 7,18 L17,18 C19.209139,18 21,16.209139 21,14 L21,10 C21,7.790861 19.209139,6 17,6 Z M8,9 C8.55228475,9 9,9.44771525 9,10 L9,11 L10,11 C10.5522847,11 11,11.4477153 11,12 C11,12.5522847 10.5522847,13 10,13 L9,13 L9,14 C9,14.5522847 8.55228475,15 8,15 C7.44771525,15 7,14.5522847 7,14 L7,13 L6,13 C5.44771525,13 5,12.5522847 5,12 C5,11.4477153 5.44771525,11 6,11 L7,11 L7,10 C7,9.44771525 7.44771525,9 8,9 Z M17,9 C17.5522847,9 18,9.44771525 18,10 C18,10.5522847 17.5522847,11 17,11 C16.4477153,11 16,10.5522847 16,10 C16,9.44771525 16.4477153,9 17,9 Z M15,11 C15.5522847,11 16,11.4477153 16,12 C16,12.5522847 15.5522847,13 15,13 C14.4477153,13 14,12.5522847 14,12 C14,11.4477153 14.4477153,11 15,11 Z M17,13 C17.5522847,13 18,13.4477153 18,14 C18,14.5522847 17.5522847,15 17,15 C16.4477153,15 16,14.5522847 16,14 C16,13.4477153 16.4477153,13 17,13 Z M19,11 C19.5522847,11 20,11.4477153 20,12 C20,12.5522847 19.5522847,13 19,13 C18.4477153,13 18,12.5522847 18,12 C18,11.4477153 18.4477153,11 19,11 Z" fill="#3b82f6" fill-rule="nonzero"></path>
    </g>
</svg>