<?xml version="1.0" encoding="UTF-8"?>
<svg width="24px" height="24px" viewBox="0 0 24 24" version="1.1" xmlns="http://www.w3.org/2000/svg" xmlns:xlink="http://www.w3.org/1999/xlink">
    <g stroke="none" stroke-width="1" fill="none" fill-rule="evenodd">
        <path d="M5.20970461,2.47304211 C6.91022022,2.16201672 8.65422098,2 10.4417069,2 L12.0250536,2 C13.8125395,2 15.5565403,2.16201672 17.2570559,2.47304211 L21.3333333,3.24159021 L18.1204523,8.94223529 C18.1204523,8.94223529 16.7743945,7.7372549 16,7.7372549 C15.2256055,7.7372549 14.9310345,8.1647059 14.9310345,9.31617647 L14.9310345,11.2 C14.9310345,11.7274178 14.5083469,12.1568627 14,12.1568627 L10,12.1568627 C9.49165311,12.1568627 9.06896552,11.7274178 9.06896552,11.2 L9.06896552,9.31617647 C9.06896552,8.1647059 8.77439448,7.7372549 8,7.7372549 C7.22560554,7.7372549 5.87954768,8.94223529 5.87954768,8.94223529 L2.66666667,3.24159021 L5.20970461,2.47304211 Z M12.0250536,13.9058824 L16.4729555,13.9058824 C17.6558078,13.9058824 18.4444444,14.7174125 18.4444444,15.857255 L18.4444444,19.9215686 C18.4444444,20.5161994 17.973079,21 17.3939394,21 L6.60606061,21 C6.02692103,21 5.55555556,20.5161994 5.55555556,19.9215686 L5.55555556,15.857255 C5.55555556,14.7174125 6.34419221,13.9058824 7.52704453,13.9058824 L12.0250536,13.9058824 Z" fill="#3b82f6"></path>
    </g>
</svg>