<?xml version="1.0" encoding="UTF-8"?>
<svg width="24px" height="24px" viewBox="0 0 24 24" version="1.1" xmlns="http://www.w3.org/2000/svg" xmlns:xlink="http://www.w3.org/1999/xlink">
    <g stroke="none" stroke-width="1" fill="none" fill-rule="evenodd">
        <path d="M14.7928932,2.79289322 L18.2071068,6.20710678 L19.5,7.5 L7.5,19.5 L4.5,19.5 L2.5,17.5 L2.5,14.5 L14.5,2.5 L14.7928932,2.79289322 Z M16.5,5.91421356 L14.5,3.91421356 L4.5,13.9142136 L4.5,17.5 L8.08578644,17.5 L18.0857864,7.5 L16.5,5.91421356 Z M8,14.5 L9.5,16 L8,16 L8,14.5 Z M20.5,9.5 C21.0522847,9.5 21.5,9.94771525 21.5,10.5 L21.5,20.5 C21.5,21.0522847 21.0522847,21.5 20.5,21.5 L10.5,21.5 C9.94771525,21.5 9.5,21.0522847 9.5,20.5 L9.5,17.0147186 L11.5,15.0147186 L11.5,19.5 L19.5,19.5 L19.5,11.5 L15.0147186,11.5 L17.0147186,9.5 L20.5,9.5 Z" fill="#3b82f6" fill-rule="nonzero"></path>
    </g>
</svg>