<?xml version="1.0" encoding="UTF-8"?>
<svg width="24px" height="24px" viewBox="0 0 24 24" version="1.1" xmlns="http://www.w3.org/2000/svg" xmlns:xlink="http://www.w3.org/1999/xlink">
    <g stroke="none" stroke-width="1" fill="none" fill-rule="evenodd">
        <path d="M12,4.99438147 C14.3842696,3.3143971 17.267428,3.73923849 20.1000952,6.1358406 C20.5551587,6.52167974 21.1732294,7.12068686 21.9542208,7.93286195 L20.5428555,9.31463949 C19.7823672,8.52360993 19.1921923,7.95920055 18.7723307,7.62141133 C16.7340252,5.91839513 14.7546192,5.61466882 13.1999999,6.79423142 L13.1999999,19.3276442 C14.7921063,18.272936 16.8379499,18.6165157 19.3375306,20.3583833 C19.7573922,20.6519763 20.347567,21.1588366 21.1080553,21.8789644 L19.6966899,23.2607419 C18.9156985,22.5148706 18.2976278,22.0037061 17.8425643,21.7274902 C15.0098972,19.8066194 12.8171604,19.5616096 12,20.9924607 L12,4.99438147 Z" fill="#3b82f6" fill-rule="nonzero" transform="translate(16.977110, 13.999962) scale(-1, 1) translate(-16.977110, -13.999962) "></path>
        <path d="M2,4.99438147 C4.3842696,3.3143971 7.267428,3.73923849 10.1000952,6.1358406 C10.5551587,6.52167974 11.1732294,7.12068686 11.9542208,7.93286195 L10.5428555,9.31463949 C9.78236722,8.52360993 9.19219229,7.95920055 8.77233073,7.62141133 C6.73402522,5.91839513 4.75461917,5.61466882 3.1999999,6.79423142 L3.1999999,19.3276442 C4.79210635,18.272936 6.83794989,18.6165157 9.33753064,20.3583833 C9.75739221,20.6519763 10.347567,21.1588366 11.1080553,21.8789644 L9.69668989,23.2607419 C8.9156985,22.5148706 8.29762783,22.0037061 7.84256433,21.7274902 C5.00989719,19.8066194 2.81716044,19.5616096 2,20.9924607 L2,4.99438147 Z" fill="#3b82f6" fill-rule="nonzero"></path>
    </g>
</svg>