<?xml version="1.0" encoding="UTF-8"?>
<svg width="24px" height="24px" viewBox="0 0 24 24" version="1.1" xmlns="http://www.w3.org/2000/svg" xmlns:xlink="http://www.w3.org/1999/xlink">
    <g stroke="none" stroke-width="1" fill="none" fill-rule="evenodd">
        <path d="M20,8 L20,7 C20,4.790861 18.209139,3 16,3 L8,3 C5.790861,3 4,4.790861 4,7 L4,8 C2.8954305,8 2,8.8954305 2,10 L2,14 C2,14.5522847 2.44771525,15 3,15 L4,15 L4,20 C4,20.5522847 4.44771525,21 5,21 L7,21 C7.55228475,21 8,20.5522847 8,20 L8,15 L16,15 L16,20 C16,20.5522847 16.4477153,21 17,21 L19,21 C19.5522847,21 20,20.5522847 20,20 L20,15 L21,15 C21.5522847,15 22,14.5522847 22,14 L22,10 C22,8.8954305 21.1045695,8 20,8 Z M6,7 C6,5.8954305 6.8954305,5 8,5 L16,5 C17.1045695,5 18,5.8954305 18,7 L18,8 L6,8 L6,7 Z" fill="#3b82f6" fill-rule="nonzero"></path>
    </g>
</svg>