<?xml version="1.0" encoding="UTF-8" standalone="no"?>
<svg xmlns="http://www.w3.org/2000/svg" viewBox="0 0 800 240" width="800" height="240">
  <defs>
    <linearGradient id="gradient" x1="0%" y1="0%" x2="100%" y2="0%">
      <stop offset="0%" style="stop-color:#ff0000" />
      <stop offset="50%" style="stop-color:#8a2be2" />
      <stop offset="100%" style="stop-color:#0066ff" />
    </linearGradient>
  </defs>
  
  <!-- Infinity symbol with arrows -->
  <path d="M200,120 C200,70 240,30 300,30 C360,30 400,70 400,120 C400,170 440,210 500,210 C560,210 600,170 600,120 C600,70 560,30 500,30 C440,30 400,70 400,120 C400,170 360,210 300,210 C240,210 200,170 200,120 Z" fill="none" stroke="url(#gradient)" stroke-width="40" />
  
  <!-- Left arrow -->
  <path d="M280,130 L240,160 L280,190" fill="none" stroke="#ff0000" stroke-width="20" stroke-linecap="round" stroke-linejoin="round" />
  
  <!-- Right arrow -->
  <path d="M520,110 L560,80 L520,50" fill="none" stroke="#0066ff" stroke-width="20" stroke-linecap="round" stroke-linejoin="round" />
  
  <!-- Text -->
  <text x="60" y="230" font-family="Arial, sans-serif" font-size="70" font-weight="bold" letter-spacing="1">
    <tspan fill="#0066ff">BAR</tspan><tspan fill="#8a2be2">TER</tspan><tspan fill="#ff0000">TAP.AZ</tspan>
  </text>
</svg>